<svg width="21" height="18" viewBox="0 0 21 18" fill="none" xmlns="http://www.w3.org/2000/svg">
<path d="M18.9186 4.9275C19.732 4.35 20.4161 3.62917 20.9736 2.79917V2.79833C20.2295 3.12417 19.4378 3.34083 18.6111 3.44583C19.4611 2.93833 20.1103 2.14083 20.4153 1.18C19.6228 1.6525 18.7478 1.98583 17.8153 2.1725C17.0628 1.37083 15.9903 0.875 14.8203 0.875C12.5503 0.875 10.7228 2.7175 10.7228 4.97583C10.7228 5.30083 10.7503 5.61333 10.8178 5.91083C7.40947 5.74417 4.3928 4.11083 2.36613 1.62167C2.0128 2.23583 1.80447 2.93833 1.80447 3.69417C1.80447 5.11417 2.5353 6.3725 3.62613 7.10167C2.96697 7.08917 2.32113 6.8975 1.77363 6.59667V6.64167C1.77363 8.63417 3.19447 10.2892 5.05863 10.6708C4.72447 10.7625 4.36113 10.8058 3.98363 10.8058C3.72113 10.8058 3.45613 10.7908 3.2078 10.7358C3.73863 12.3592 5.24697 13.5533 7.03863 13.5925C5.64363 14.6833 3.87197 15.3408 1.95447 15.3408C1.61863 15.3408 1.29613 15.3258 0.973633 15.285C2.7903 16.4558 4.94197 17.125 7.26363 17.125C14.4995 17.125 19.2153 11.0883 18.9186 4.9275Z" fill="#DF6951"/>
</svg>
