<svg width="21" height="12" viewBox="0 0 21 12" fill="none" xmlns="http://www.w3.org/2000/svg">
<path d="M9.39178 10.0984C9.44512 10.0534 9.49928 10.0067 9.54928 9.95756C6.76512 12.6892 2.22512 11.4142 1.16095 7.56172V7.55589C-0.266549 2.31422 5.75262 -1.66744 9.54762 1.99922C9.62678 2.08339 14.8693 7.67422 14.536 7.31839H14.551C15.3335 8.12506 16.4651 8.03672 17.1385 7.33172C17.8626 6.57506 17.8885 5.34006 17.1776 4.57089C16.0551 3.27839 13.851 4.24422 14.0618 6.16006L12.8001 4.87506L11.3368 3.47589C11.6385 2.87672 12.0343 2.35256 12.5301 1.89922C12.4768 1.94506 12.4226 1.99256 12.3726 2.04006C15.1676 -0.70161 19.7043 0.603391 20.761 4.43922V4.44422C22.1918 9.68506 16.166 13.6667 12.3743 10.0001C12.2968 9.91673 7.05762 4.29089 7.38928 4.64756L7.38595 4.63506C7.37262 4.63506 7.37262 4.62256 7.37262 4.62256C6.55095 3.77506 5.43678 3.90256 4.78512 4.59672C4.06012 5.35339 4.03512 6.58839 4.74762 7.34589C5.82095 8.60839 8.07262 7.67256 7.86095 5.71839C7.94262 5.80256 10.7685 8.70339 10.5885 8.51922C10.131 9.43172 9.61928 9.85089 9.39178 10.0984Z" fill="#DF6951"/>
</svg>
